# xmcd CD database file
#
# Track frame offsets:
#	150
#	902
#	31888
#	37270
#	62984
#	85684
#	122694
#	152608
#	173345
#	190957
#	203195
#	204989
#	223645
#	241892
#
# Disc length: 3759 seconds
#
# Revision: 0
# Processed by: cddbd v1.5PL3 Copyright (c) Steve Scherf et al.
# Submitted via: CDex 1.50
#
DISCID=b00ead0e
DTITLE=Heilig IJs - De doorslag
DYEAR=2000
DGENRE=Nederhop
TTITLE0=Lesson two
TTITLE1=Eye cry
TTITLE2=Welcome to the lab
TTITLE3=The mad scientists
TTITLE4=Lesson two too
TTITLE5=De bodemlijn
TTITLE6=Vloeibaar
TTITLE7=Fatfood upon your plate
TTITLE8=IJs
TTITLE9=Lazy lay-back
TTITLE10=Sh*ft skit
TTITLE11=Waarsprekers deel 2
TTITLE12=Side by side
TTITLE13=Go in peace
EXTD=YEAR: 2000
EXTT0=
EXTT1=
EXTT2=
EXTT3=
EXTT4=
EXTT5=
EXTT6=
EXTT7=
EXTT8=
EXTT9=
EXTT10=
EXTT11=
EXTT12=
EXTT13=
PLAYORDER=
